<?xml version="1.0" standalone="no"?>
<!DOCTYPE svg PUBLIC "-//W3C//DTD SVG 20010904//EN"
 "http://www.w3.org/TR/2001/REC-SVG-20010904/DTD/svg10.dtd">
<svg version="1.0" xmlns="http://www.w3.org/2000/svg"
 width="494.000000pt" height="505.000000pt" viewBox="0 0 494.000000 505.000000"
 preserveAspectRatio="xMidYMid meet">
<metadata>
Created by potrace 1.16, written by Peter Selinger 2001-2019
</metadata>
<g transform="translate(0.000000,505.000000) scale(0.100000,-0.100000)"
fill="#000000" stroke="none">
<path d="M2335 3149 c-226 -33 -404 -100 -585 -220 -81 -54 -103 -64 -157 -71
-101 -12 -157 -48 -188 -122 -15 -34 -15 -42 0 -85 19 -59 59 -90 125 -98 l48
-6 32 -91 c43 -125 58 -156 72 -157 28 -2 89 2 213 16 411 46 972 46 1343 -1
67 -8 126 -13 131 -10 5 3 19 43 30 88 42 159 61 207 84 214 86 27 133 141 90
215 -21 35 -30 39 -118 49 -63 8 -79 15 -170 75 -189 125 -311 174 -512 205
-157 24 -269 24 -438 -1z m402 -30 c84 -12 237 -50 269 -67 10 -6 57 -29 103
-52 46 -23 96 -50 110 -59 142 -97 173 -110 254 -111 54 0 91 -38 84 -86 -8
-48 -39 -87 -82 -103 -54 -19 -107 0 -169 63 -28 27 -52 44 -54 37 -2 -6 -15
-25 -29 -41 -39 -47 -75 -41 -136 20 -28 28 -51 49 -52 48 -1 -2 -10 -18 -19
-35 -29 -58 -99 -54 -131 7 -9 17 -20 30 -25 28 -6 -2 -20 -23 -32 -48 -59
-117 -189 -118 -240 -3 l-21 47 -46 -51 c-97 -109 -160 -127 -247 -72 -27 17
-52 36 -56 43 -30 50 -31 50 -75 7 -38 -38 -44 -41 -97 -41 -52 0 -60 3 -100
40 l-43 40 -17 -45 c-10 -25 -29 -54 -43 -65 -45 -35 -126 -22 -169 29 l-21
25 -17 -32 c-19 -37 -50 -52 -105 -52 -58 0 -101 47 -101 111 0 30 7 43 39 72
45 40 84 52 147 42 43 -6 47 -4 99 42 127 114 407 228 644 262 83 13 289 13
378 0z m213 -466 c22 3 52 14 67 25 l27 20 36 -30 c54 -42 100 -47 149 -15
l40 26 40 -33 c23 -19 54 -37 71 -41 16 -4 30 -9 30 -12 0 -25 -66 -233 -76
-237 -6 -2 -80 3 -165 11 -230 23 -960 23 -1214 0 -104 -9 -202 -19 -217 -22
-35 -6 -46 10 -92 133 l-34 93 24 16 c24 15 28 15 63 -5 25 -14 56 -22 86 -22
40 0 52 5 78 33 18 18 37 41 43 52 12 20 12 20 35 -1 53 -48 133 -49 196 -3
l45 31 31 -30 c35 -34 110 -71 143 -72 37 0 110 38 154 81 l42 41 33 -36 c38
-41 71 -56 127 -56 54 0 107 27 131 67 l19 33 25 -26 c21 -22 30 -26 63 -21z"/>
<path d="M1514 2133 c-10 -3 -8 -403 3 -433 10 -29 21 25 22 105 0 43 2 80 5
82 2 3 13 0 24 -6 23 -12 52 -79 52 -121 0 -16 5 -32 10 -35 35 -21 13 118
-25 163 l-23 27 21 29 c28 40 28 116 1 153 -19 26 -66 44 -90 36z"/>
<path d="M2634 1963 c9 -232 14 -271 36 -278 29 -9 99 25 115 56 30 58 12 163
-37 212 -20 21 -26 33 -19 40 14 14 14 72 1 97 -5 10 -24 23 -41 29 -64 22
-62 28 -55 -156z m82 -18 c32 -22 54 -77 54 -134 0 -42 -4 -54 -27 -76 -58
-53 -67 -37 -77 143 -4 72 -2 82 13 82 9 0 26 -7 37 -15z"/>
<path d="M3099 2126 c-3 -3 -1 -40 2 -83 4 -43 8 -142 8 -219 1 -116 4 -143
16 -148 13 -4 15 9 15 85 l0 90 29 -20 c17 -13 39 -46 56 -86 29 -67 45 -82
45 -42 -1 36 -35 99 -76 140 l-38 38 16 32 c24 46 50 142 46 172 -5 44 -23 28
-31 -27 -4 -29 -15 -75 -24 -103 -15 -46 -17 -48 -24 -25 -4 14 -7 57 -8 97
-1 87 -12 119 -32 99z"/>
<path d="M1317 2113 c-6 -10 10 -373 17 -380 2 -3 10 -2 17 2 9 6 10 36 5 116
l-6 109 30 0 c16 0 30 5 30 10 0 6 -13 10 -29 10 -25 0 -29 4 -35 38 -11 67
-9 71 32 74 20 2 37 8 37 13 0 12 -91 19 -98 8z"/>
<path d="M2130 1941 c0 -98 3 -193 6 -210 11 -56 24 -33 24 44 l0 75 39 0 c35
0 39 -3 45 -31 3 -17 6 -51 6 -75 0 -24 5 -44 10 -44 16 0 9 412 -7 418 -10 3
-13 -26 -13 -123 l0 -126 -37 3 -38 3 -3 123 c-2 99 -5 122 -17 122 -13 0 -15
-28 -15 -179z"/>
<path d="M2906 2098 c-3 -13 -7 -81 -11 -153 -3 -71 -8 -163 -11 -202 -7 -86
9 -100 22 -21 9 51 10 53 46 59 l37 6 7 -42 c6 -46 19 -73 30 -63 11 12 -70
402 -89 426 -14 18 -26 15 -31 -10z"/>
<path d="M3528 1913 c-3 -109 -2 -202 2 -206 4 -5 24 -5 44 -1 29 5 44 16 64
47 25 38 27 47 27 157 0 110 -1 119 -28 158 -24 37 -32 42 -66 42 l-39 0 -4
-197z m76 152 c52 -52 46 -283 -7 -320 -12 -8 -25 -15 -29 -15 -9 0 -11 294
-2 328 7 26 17 28 38 7z"/>
<path d="M1724 2048 c3 -29 6 -115 6 -190 l0 -138 55 0 c42 0 55 3 55 15 0 11
-11 15 -40 15 l-40 0 0 59 0 60 38 3 c50 4 51 32 2 36 -19 2 -38 9 -42 15 -4
7 -8 42 -8 80 l0 67 35 0 c24 0 35 5 35 15 0 11 -12 15 -51 15 l-52 0 7 -52z"/>
<path d="M3323 2003 c4 -54 7 -140 7 -190 l0 -93 56 0 c64 0 73 23 11 28 l-37
3 0 59 0 59 38 3 c50 4 51 32 1 36 -35 3 -37 5 -43 49 -3 25 -6 61 -6 79 0 29
3 33 32 36 56 5 46 28 -13 28 l-52 0 6 -97z"/>
<path d="M1980 2073 c-51 -18 -53 -88 -5 -179 38 -71 44 -117 19 -152 -19 -27
-37 -28 -55 -2 -10 14 -18 17 -29 11 -25 -17 16 -51 61 -51 80 0 93 88 30 209
-34 64 -38 77 -29 103 7 20 19 31 39 35 34 7 39 33 7 32 -13 0 -30 -3 -38 -6z"/>
</g>
</svg>
